<svg width="1002" height="820" viewBox="0 0 1002 820" fill="none" xmlns="http://www.w3.org/2000/svg">
<path d="M65.2564 340.127C62.8117 341.609 60.3432 342.681 57.851 343.344C55.4174 344.02 53.0511 344.232 50.7524 343.979C48.4757 343.762 46.3577 343.026 44.3983 341.768C42.4611 340.548 40.7847 338.77 39.3693 336.435C38.8607 335.596 38.3365 334.566 37.7969 333.347C37.2573 332.127 36.7569 330.684 36.2957 329.018C35.8125 327.315 35.4303 325.326 35.1494 323.052L43.3078 321.325C43.592 322.699 43.8757 323.949 44.1588 325.075C44.4198 326.164 44.7206 327.154 45.0612 328.045C45.3797 328.9 45.7711 329.711 46.2356 330.477C47.1202 331.936 48.2995 333.018 49.7734 333.721C51.3059 334.438 53.0121 334.702 54.8918 334.51C56.808 334.297 58.7877 333.571 60.831 332.332C62.8013 331.138 64.3764 329.909 65.5561 328.645C66.7359 327.381 67.5386 326.071 67.9642 324.716C68.4484 323.375 68.5667 322.006 68.319 320.609C68.0491 319.176 67.4608 317.712 66.5541 316.216C65.6031 314.647 64.1944 312.981 62.3279 311.219C60.4613 309.456 58.3892 307.519 56.1113 305.407L62.5795 298.793C63.7847 299.958 64.8065 300.985 65.6446 301.874C66.4972 302.705 67.1954 303.404 67.7395 303.972C68.2979 304.482 68.7606 304.875 69.1277 305.151C69.8841 305.741 70.7018 306.143 71.5808 306.359C72.4377 306.538 73.5058 306.489 74.7851 306.213C76.0788 305.878 77.6931 305.248 79.6281 304.325C81.5409 303.365 83.9386 302.012 86.8211 300.265C89.2293 298.805 91.2649 297.471 92.9278 296.264C94.6051 294.998 95.9573 293.854 96.9845 292.832C98.026 291.752 98.779 290.772 99.2434 289.891C99.7442 288.989 99.993 288.165 99.9896 287.418C100.001 286.613 99.8071 285.883 99.409 285.226C99.0109 284.569 98.4597 284.03 97.7554 283.609C97.0875 283.165 96.2853 282.953 95.3488 282.972C94.4122 282.991 93.3967 283.332 92.302 283.995C90.879 284.858 89.6661 286.067 88.6633 287.623C87.6605 289.179 86.8268 290.931 86.1624 292.881C85.5123 294.771 84.9977 296.68 84.6185 298.606C84.2758 300.51 84.0166 302.264 83.8408 303.867L75.4503 307.68C75.469 305.324 75.6265 302.909 75.9227 300.434C76.2333 297.901 76.7015 295.422 77.3272 292.997C77.9529 290.572 78.7622 288.286 79.7551 286.137C80.7844 283.967 82.0122 282 83.4385 280.237C84.8648 278.475 86.5084 277.03 88.3692 275.902C90.8139 274.42 93.1923 273.652 95.5043 273.598C97.7942 273.507 99.9039 274.024 101.833 275.15C103.799 276.253 105.435 277.881 106.74 280.034C107.956 282.041 108.653 284.138 108.831 286.325C109.024 288.454 108.584 290.691 107.511 293.037C106.453 295.325 104.664 297.682 102.143 300.108C99.622 302.534 96.2818 305.008 92.1222 307.529C90.0424 308.789 87.9217 309.9 85.7601 310.861C83.657 311.836 81.6408 312.585 79.7114 313.105C77.7819 313.626 76.0415 313.883 74.4902 313.875C72.9168 313.831 71.6419 313.456 70.6655 312.751L74.7589 312.59C76.1533 315.137 76.9732 317.684 77.2188 320.229C77.4644 322.774 77.1571 325.231 76.2969 327.598C75.4954 329.98 74.1664 332.232 72.31 334.355C70.4536 336.478 68.1024 338.402 65.2564 340.127ZM83.4133 272.17C82.2822 272.856 81.0831 273.059 79.8159 272.779C78.5852 272.477 77.6271 271.761 76.9415 270.63C76.2559 269.499 76.053 268.299 76.3327 267.032C76.6489 265.743 77.3725 264.756 78.5036 264.07C79.5983 263.407 80.772 263.244 82.0248 263.582C83.314 263.898 84.3014 264.622 84.987 265.753C85.6726 266.884 85.8463 268.076 85.508 269.329C85.2062 270.56 84.5079 271.507 83.4133 272.17Z" fill="black"/>
<path d="M20.1485 460.317C19.5293 459.871 18.9306 459.298 18.3524 458.599C17.781 457.858 17.2899 457.022 16.879 456.091C16.4682 455.16 16.1728 454.182 15.9931 453.159C15.8622 452.101 15.8822 451.045 16.053 449.992C16.4288 447.675 17.3077 445.722 18.6896 444.13C20.0785 442.497 21.7814 441.325 23.7985 440.615C25.8224 439.863 27.9504 439.668 30.1826 440.03C31.404 440.228 32.5064 440.493 33.4898 440.826C34.5222 441.123 35.541 441.504 36.546 441.97L33.8239 449.957C33.1 449.624 32.3869 449.357 31.6846 449.156C31.0312 448.921 30.4308 448.758 29.8832 448.669C28.9988 448.526 28.1889 448.589 27.4536 448.859C26.7251 449.086 26.1166 449.506 25.6283 450.119C25.1888 450.696 24.9008 451.406 24.7642 452.248C24.607 453.217 24.6775 454.114 24.9757 454.941C25.316 455.774 25.884 456.536 26.6796 457.227C27.5241 457.883 28.5964 458.467 29.8963 458.981L20.1485 460.317ZM12.8743 469.187L11.374 460.45C13.6597 460.215 16.1486 459.927 18.8406 459.586C21.5395 459.203 24.3819 458.734 27.3676 458.181C30.3955 457.635 33.4791 457.012 36.6186 456.311L38.5918 464.93C36.7978 465.33 34.8041 465.763 32.6106 466.229C30.4239 466.652 28.153 467.062 25.7979 467.458C23.4428 467.854 21.1611 468.197 18.9528 468.487C16.7445 468.777 14.7183 469.01 12.8743 469.187Z" fill="black"/>
<path d="M405.153 155.941L403.539 146.972C407.411 145.508 410.745 144.133 413.543 142.847C416.326 141.521 418.572 140.283 420.282 139.135C422.016 137.932 423.199 136.777 423.83 135.672C424.501 134.551 424.633 133.452 424.225 132.375C423.682 130.938 422.794 129.313 421.56 127.498C420.311 125.644 418.915 123.823 417.372 122.035L424.354 116.794C425.386 117.955 426.451 119.263 427.549 120.718C428.631 122.133 429.622 123.606 430.52 125.136C431.443 126.612 432.168 128.048 432.697 129.445C433.632 131.919 433.901 134.258 433.503 136.461C433.089 138.625 431.844 140.761 429.768 142.869C427.716 144.922 424.673 147.008 420.639 149.127C416.62 151.285 411.458 153.557 405.153 155.941ZM405.093 155.964C400.783 157.594 397.003 158.636 393.753 159.089C390.558 159.568 387.797 159.563 385.468 159.075C383.165 158.532 381.284 157.601 379.828 156.282C378.371 154.963 377.273 153.325 376.533 151.37C376.05 150.093 375.667 148.778 375.383 147.425C375.125 146.018 374.921 144.635 374.772 143.277C374.664 141.904 374.56 140.666 374.462 139.563L382.602 138.469C382.714 139.248 382.829 140.094 382.946 141.007C383.063 141.921 383.213 142.799 383.395 143.643C383.562 144.446 383.767 145.167 384.008 145.806C384.566 147.282 385.583 148.403 387.059 149.168C388.559 149.878 390.647 150.092 393.323 149.81C395.983 149.488 399.369 148.549 403.48 146.995L407.122 153.007L405.093 155.964ZM415 168.229C413.842 168.666 412.694 168.645 411.554 168.163C410.454 167.667 409.685 166.84 409.247 165.683C408.81 164.526 408.824 163.357 409.29 162.177C409.811 161.022 410.65 160.226 411.808 159.788C412.965 159.35 414.101 159.4 415.216 159.936C416.386 160.497 417.19 161.356 417.628 162.513C418.066 163.671 418.016 164.807 417.48 165.922C416.984 167.022 416.157 167.791 415 168.229Z" fill="black"/>
<path d="M258.31 424.13C255.488 423.673 252.914 422.888 250.587 421.775C248.296 420.712 246.357 419.339 244.772 417.655C243.179 416.014 242.045 414.079 241.369 411.851C240.686 409.666 240.564 407.225 241.001 404.53C241.158 403.561 241.427 402.438 241.807 401.159C242.187 399.881 242.742 398.458 243.472 396.891C244.209 395.281 245.208 393.52 246.469 391.607L253.799 395.584C253.124 396.814 252.529 397.95 252.014 398.99C251.506 399.988 251.093 400.937 250.774 401.836C250.462 402.693 250.235 403.564 250.091 404.448C249.818 406.133 250.014 407.721 250.68 409.212C251.381 410.752 252.509 412.059 254.064 413.133C255.661 414.213 257.639 414.944 259.997 415.327C262.271 415.696 264.267 415.782 265.985 415.585C267.703 415.388 269.163 414.912 270.366 414.156C271.605 413.45 272.583 412.484 273.3 411.261C274.024 409.995 274.526 408.499 274.806 406.772C275.1 404.961 275.108 402.78 274.83 400.228C274.553 397.675 274.232 394.857 273.868 391.772L283.081 390.933C283.243 392.602 283.354 394.046 283.416 395.266C283.526 396.451 283.604 397.436 283.649 398.222C283.744 398.972 283.841 399.571 283.941 400.02C284.135 400.959 284.496 401.796 285.025 402.53C285.561 403.222 286.406 403.878 287.559 404.497C288.761 405.081 290.398 405.649 292.469 406.201C294.548 406.711 297.251 407.236 300.578 407.776C303.358 408.227 305.772 408.532 307.821 408.692C309.919 408.816 311.69 408.822 313.134 408.711C314.628 408.564 315.837 408.306 316.761 407.937C317.727 407.576 318.451 407.109 318.933 406.539C319.463 405.934 319.79 405.252 319.913 404.494C320.036 403.736 319.966 402.968 319.703 402.19C319.482 401.42 319.009 400.738 318.284 400.145C317.559 399.552 316.565 399.153 315.302 398.948C313.659 398.681 311.952 398.815 310.179 399.349C308.407 399.882 306.636 400.676 304.866 401.729C303.145 402.746 301.515 403.865 299.977 405.085C298.481 406.312 297.147 407.479 295.973 408.585L287.113 406.045C288.656 404.264 290.342 402.528 292.173 400.836C294.052 399.11 296.016 397.527 298.065 396.087C300.114 394.647 302.213 393.431 304.363 392.44C306.554 391.456 308.764 390.755 310.993 390.339C313.221 389.922 315.41 389.888 317.558 390.237C320.379 390.694 322.688 391.652 324.483 393.111C326.285 394.527 327.555 396.289 328.293 398.397C329.074 400.512 329.263 402.812 328.86 405.297C328.484 407.613 327.655 409.662 326.372 411.442C325.138 413.187 323.352 414.604 321.014 415.695C318.724 416.75 315.834 417.383 312.341 417.594C308.849 417.806 304.702 417.522 299.901 416.743C297.501 416.354 295.166 415.824 292.897 415.153C290.664 414.532 288.644 413.793 286.838 412.938C285.032 412.083 283.54 411.15 282.365 410.138C281.196 409.084 280.468 407.972 280.183 406.801L283.403 409.334C282.812 412.177 281.784 414.647 280.32 416.744C278.857 418.84 277.029 420.511 274.839 421.755C272.684 423.048 270.212 423.9 267.422 424.312C264.632 424.724 261.595 424.663 258.31 424.13Z" fill="black"/>
<path d="M133.731 605.652L132.368 596.94C136.23 596.507 139.434 595.793 141.98 594.798C144.568 593.812 146.576 592.585 148.005 591.116C149.475 589.657 150.419 588.012 150.836 586.182C151.101 585.017 151.21 583.773 151.161 582.449C151.123 581.084 150.952 579.622 150.65 578.066C150.39 576.519 150.02 574.881 149.538 573.152L158.609 571.084C159.43 574.203 159.946 577.121 160.158 579.839C160.412 582.566 160.288 585.032 159.785 587.237C159.321 589.275 158.605 591.169 157.637 592.917C156.712 594.676 155.523 596.243 154.072 597.619C152.653 599.046 150.945 600.298 148.949 601.375C146.954 602.451 144.695 603.337 142.174 604.032C139.643 604.768 136.829 605.308 133.731 605.652Z" fill="black"/>
<path d="M459.745 805.761C459.19 804.952 458.607 803.954 457.999 802.768C457.39 801.581 456.808 800.169 456.252 798.532C455.672 796.86 455.177 794.896 454.766 792.641L462.813 790.45C463.175 791.806 463.53 793.038 463.877 794.146C464.2 795.218 464.557 796.189 464.948 797.059C465.315 797.895 465.752 798.681 466.259 799.42C466.984 800.475 467.89 801.302 468.975 801.902C470.061 802.502 471.29 802.822 472.663 802.862C474.061 802.936 475.561 802.708 477.163 802.177C478.8 801.621 480.515 800.727 482.308 799.494C484.348 798.092 486.008 796.666 487.289 795.216C488.63 793.777 489.622 792.396 490.266 791.073C490.97 789.761 491.385 788.596 491.513 787.576C491.64 786.557 491.523 785.783 491.16 785.256C490.87 784.834 490.318 784.67 489.502 784.764C488.722 784.835 487.749 785.038 486.582 785.374C485.426 785.651 484.176 785.94 482.831 786.244C481.521 786.522 480.174 786.672 478.79 786.691C477.44 786.687 476.153 786.433 474.927 785.929C473.736 785.402 472.693 784.488 471.799 783.187C470.88 781.851 470.229 780.15 469.845 778.084C469.436 775.983 469.387 773.765 469.697 771.429C469.983 769.058 470.709 766.799 471.873 764.652C473.049 762.446 474.727 760.594 476.907 759.096C478.454 758.032 480.03 757.312 481.634 756.934C483.274 756.532 484.75 756.345 486.064 756.374L487.563 764.43C486.486 764.445 485.442 764.62 484.429 764.954C483.391 765.252 482.486 765.668 481.712 766.199C480.728 766.876 479.911 767.722 479.263 768.737C478.65 769.728 478.209 770.782 477.941 771.898C477.684 772.955 477.603 773.968 477.7 774.937C477.796 775.906 478.062 776.707 478.497 777.34C478.932 777.973 479.618 778.33 480.554 778.412C481.501 778.434 482.612 778.317 483.886 778.063C485.137 777.773 486.452 777.464 487.832 777.137C489.212 776.81 490.576 776.571 491.923 776.422C493.27 776.273 494.496 776.362 495.601 776.689C496.742 776.993 497.674 777.672 498.399 778.727C499.439 780.239 500.039 782.13 500.202 784.4C500.423 786.681 500.103 789.153 499.242 791.816C498.38 794.479 496.903 797.151 494.811 799.832C492.778 802.523 490.021 805.065 486.54 807.458C484.008 809.198 481.482 810.494 478.961 811.347C476.465 812.234 474.027 812.642 471.647 812.569C469.327 812.507 467.135 811.917 465.071 810.798C463.067 809.69 461.292 808.011 459.745 805.761Z" fill="black"/>
<path d="M706.129 738.507C703.77 738.125 701.708 737.379 699.943 736.272C698.226 735.129 696.954 733.647 696.125 731.827C695.346 729.972 695.157 727.801 695.56 725.317C695.963 722.832 697.253 720.21 699.43 717.451C701.613 714.65 704.934 712.033 709.392 709.601L707.817 715.31L702.849 709.966L709.966 703.664C712.77 706.626 715.122 709.45 717.02 712.135C718.968 714.785 720.357 717.409 721.189 720.008C722.021 722.607 722.218 725.254 721.781 727.949C721.569 729.255 721.13 730.632 720.463 732.08C719.802 733.485 718.861 734.759 717.638 735.901C716.423 737 714.862 737.828 712.957 738.383C711.1 738.903 708.824 738.944 706.129 738.507ZM708.238 729.902C709.291 730.073 710.167 729.999 710.867 729.68C711.609 729.368 712.204 728.903 712.65 728.284C713.096 727.664 713.381 726.976 713.504 726.218C713.627 725.459 713.591 724.611 713.398 723.672C713.205 722.733 712.712 721.637 711.921 720.385C711.13 719.133 709.903 717.637 708.24 715.898L713.144 716.045C711.226 716.944 709.641 717.919 708.39 718.969C707.139 720.02 706.19 721.076 705.542 722.138C704.943 723.165 704.569 724.141 704.419 725.068C704.2 726.416 704.475 727.519 705.243 728.379C706.018 729.196 707.016 729.704 708.238 729.902ZM718.378 700.166C717.157 699.968 716.172 699.376 715.425 698.39C714.726 697.369 714.472 696.269 714.663 695.09C714.861 693.868 715.453 692.884 716.439 692.136C717.467 691.395 718.592 691.123 719.813 691.322C720.992 691.513 721.931 692.119 722.63 693.14C723.329 694.161 723.579 695.282 723.381 696.504C723.19 697.683 722.601 698.647 721.616 699.394C720.637 700.1 719.558 700.357 718.378 700.166ZM707.459 698.33C706.238 698.132 705.253 697.54 704.506 696.554C703.807 695.533 703.553 694.433 703.744 693.253C703.943 692.032 704.534 691.047 705.52 690.3C706.548 689.559 707.673 689.287 708.894 689.485C710.073 689.677 711.013 690.283 711.711 691.304C712.41 692.325 712.661 693.446 712.462 694.668C712.271 695.847 711.683 696.81 710.697 697.558C709.718 698.264 708.639 698.521 707.459 698.33Z" fill="black"/>
<path d="M887.809 348.344L870.442 304.813L878.856 301.733L896.223 345.264L887.809 348.344Z" fill="black"/>
<path d="M866.674 649.3C864.019 650.36 861.297 651.08 858.508 651.459C855.759 651.822 853.097 651.714 850.522 651.134C847.963 650.595 845.662 649.492 843.618 647.827C841.575 646.163 839.952 643.825 838.749 640.813C837.451 637.564 836.918 634.332 837.149 631.115C837.364 627.859 838.241 624.706 839.779 621.656C841.318 618.606 843.435 615.739 846.13 613.055C848.848 610.314 852.031 607.872 855.676 605.726L860.771 612.788C857.538 614.815 854.839 616.857 852.675 618.917C850.551 620.96 848.934 623.007 847.824 625.059C846.714 627.11 846.059 629.095 845.86 631.012C845.717 632.953 846.001 634.815 846.713 636.598C847.283 638.024 848.039 639.17 848.982 640.034C849.964 640.882 851.053 641.48 852.249 641.83C853.461 642.218 854.709 642.409 855.993 642.402C857.292 642.434 858.575 642.312 859.843 642.035C861.111 641.758 862.28 641.406 863.35 640.979C866.084 639.887 868.517 638.616 870.648 637.167C872.82 635.702 874.647 634.237 876.129 632.772L881.569 639.49C880.808 640.345 879.659 641.378 878.121 642.59C876.623 643.786 874.876 644.989 872.879 646.2C870.921 647.396 868.853 648.429 866.674 649.3ZM841.693 621.098C840.085 621.098 838.48 620.82 836.88 620.264C835.32 619.693 833.882 618.797 832.567 617.577C831.276 616.3 830.235 614.672 829.444 612.691C828.447 610.194 828.238 607.774 828.817 605.429C829.397 603.084 830.578 600.981 832.362 599.12C834.145 597.259 836.325 595.814 838.9 594.785C840.168 594.278 841.368 593.891 842.502 593.622C843.674 593.337 844.898 593.124 846.174 592.982L848.024 601.409C847.113 601.543 846.198 601.725 845.279 601.954C844.36 602.183 843.563 602.433 842.89 602.702C841.503 603.256 840.374 603.937 839.502 604.744C838.669 605.536 838.126 606.419 837.872 607.394C837.642 608.313 837.725 609.268 838.121 610.258C838.437 611.051 838.976 611.708 839.736 612.232C840.536 612.739 841.443 613.112 842.457 613.35C843.455 613.549 844.501 613.636 845.595 613.613C846.672 613.55 847.674 613.356 848.602 613.032L841.693 621.098ZM836.751 589.234C835.523 589.725 834.307 589.728 833.103 589.244C831.938 588.744 831.111 587.88 830.62 586.652C830.129 585.424 830.126 584.208 830.61 583.004C831.133 581.784 832.009 580.928 833.237 580.438C834.426 579.963 835.611 579.995 836.791 580.534C838.011 581.058 838.866 581.934 839.357 583.162C839.847 584.39 839.823 585.595 839.284 586.775C838.784 587.939 837.94 588.759 836.751 589.234Z" fill="black"/>
<path d="M670.631 216.581C668.554 214.318 666.946 212.029 665.807 209.715C664.637 207.431 663.964 205.152 663.79 202.88C663.616 200.607 663.967 198.403 664.844 196.266C665.718 194.19 667.161 192.229 669.173 190.382C669.896 189.719 670.802 189.003 671.892 188.234C672.982 187.466 674.299 186.692 675.842 185.912C677.417 185.104 679.292 184.339 681.467 183.617L684.762 191.277C683.47 191.826 682.3 192.35 681.252 192.848C680.235 193.318 679.323 193.807 678.516 194.316C677.741 194.796 677.023 195.339 676.363 195.945C675.137 197.07 674.265 198.392 673.747 199.91C673.229 201.427 673.248 203.089 673.805 204.895C674.33 206.729 675.53 208.668 677.406 210.711C679.137 212.597 680.799 213.967 682.393 214.821C683.956 215.703 685.446 216.159 686.864 216.19C688.251 216.249 689.575 215.989 690.838 215.409C692.101 214.829 693.299 214.02 694.43 212.981C695.31 212.174 696.2 211.155 697.098 209.925C698.025 208.727 698.96 207.347 699.903 205.787C700.877 204.199 701.87 202.505 702.884 200.706L710.639 205.75C709.733 207.16 708.943 208.349 708.267 209.317C707.62 210.316 707.086 211.154 706.664 211.83C706.274 212.478 705.95 213.007 705.69 213.419C705.036 214.599 704.659 215.64 704.56 216.541C704.521 217.445 704.683 218.253 705.045 218.963C705.436 219.704 705.963 220.437 706.627 221.16C707.175 221.757 707.774 222.22 708.424 222.55C709.074 222.88 709.886 222.975 710.858 222.836C711.891 222.699 713.21 222.212 714.816 221.375C716.422 220.538 718.487 219.222 721.01 217.428L725.732 224.561C724.893 225.099 724.008 225.68 723.075 226.304C722.142 226.928 721.271 227.525 720.462 228.094C719.684 228.635 719.075 229.107 718.634 229.511C718.226 229.886 717.95 230.342 717.806 230.879C717.691 231.448 717.812 232.148 718.169 232.979C718.526 233.809 719.238 234.806 720.305 235.969C721.084 236.818 721.841 237.485 722.575 237.969C723.34 238.425 724.118 238.609 724.907 238.522C725.727 238.406 726.593 237.93 727.504 237.093C728.29 236.372 729.118 235.381 729.987 234.12C730.888 232.83 731.811 231.374 732.756 229.754C733.731 228.165 734.678 226.485 735.6 224.712L743.682 229.543C742.792 231.287 741.75 233.054 740.556 234.845C739.422 236.638 738.233 238.308 736.989 239.855C735.805 241.405 734.679 242.67 733.61 243.651C731.944 245.18 730.251 246.27 728.532 246.921C726.842 247.604 725.14 247.863 723.426 247.699C721.772 247.537 720.135 246.984 718.514 246.039C716.894 245.094 715.334 243.804 713.834 242.169C712.737 240.975 711.853 239.759 711.182 238.522C710.57 237.288 710.184 236.079 710.024 234.894C709.892 233.741 710.015 232.644 710.391 231.603C710.8 230.534 711.49 229.582 712.462 228.748L713.933 230.351C711.771 231.466 709.891 232.005 708.292 231.966C706.693 231.928 705.291 231.535 704.085 230.789C702.91 230.014 701.847 229.108 700.895 228.071C700.145 227.253 699.502 226.395 698.967 225.497C698.432 224.598 698.048 223.675 697.817 222.729C697.646 221.786 697.657 220.82 697.851 219.832C698.076 218.815 698.556 217.824 699.292 216.859L699.007 220.334C696.812 222.233 694.52 223.554 692.133 224.298C689.746 225.041 687.322 225.239 684.86 224.892C682.428 224.576 680.004 223.702 677.589 222.27C675.172 220.898 672.853 219.001 670.631 216.581ZM734.15 205.716C733.429 204.93 733.092 203.965 733.142 202.819C733.22 201.705 733.667 200.773 734.485 200.023C735.302 199.273 736.253 198.921 737.338 198.968C738.452 199.046 739.37 199.478 740.091 200.264C740.841 201.081 741.193 202.032 741.146 203.117C741.1 204.202 740.668 205.12 739.851 205.87C739.033 206.62 738.066 206.986 736.95 206.969C735.833 206.951 734.9 206.533 734.15 205.716ZM724.464 207.656C723.742 206.87 723.406 205.905 723.456 204.759C723.534 203.645 723.981 202.713 724.798 201.963C725.616 201.213 726.567 200.861 727.652 200.908C728.766 200.986 729.684 201.418 730.405 202.204C731.155 203.021 731.507 203.972 731.46 205.057C731.414 206.142 730.982 207.06 730.164 207.81C729.347 208.56 728.38 208.926 727.264 208.909C726.147 208.891 725.214 208.473 724.464 207.656ZM731.171 214.965C730.45 214.179 730.114 213.213 730.163 212.068C730.241 210.954 730.689 210.022 731.506 209.272C732.323 208.522 733.274 208.17 734.36 208.216C735.474 208.294 736.391 208.726 737.112 209.512C737.863 210.329 738.214 211.281 738.168 212.366C738.121 213.451 737.689 214.369 736.872 215.119C736.055 215.869 735.088 216.235 733.971 216.217C732.855 216.2 731.921 215.782 731.171 214.965Z" fill="black"/>
<path d="M854.192 105.486C851.371 105.028 848.769 104.282 846.386 103.247C844.039 102.261 842.024 100.961 840.341 99.3483C838.692 97.7842 837.509 95.8849 836.791 93.6504C836.066 91.458 835.936 88.9298 836.401 86.066C836.558 85.0973 836.799 84.0125 837.123 82.8116C837.49 81.6176 838.062 80.2193 838.841 78.6166C839.627 76.9718 840.73 75.0977 842.152 72.9943L849.378 77.2138C848.5 78.6275 847.807 79.8334 847.299 80.8317C846.799 81.7878 846.396 82.6734 846.09 83.4883C845.834 84.2681 845.634 85.1001 845.491 85.9846C845.265 87.3744 845.359 88.6646 845.771 89.8553C846.225 91.0528 846.938 92.1194 847.91 93.0552C848.924 93.9977 850.201 94.7883 851.74 95.427C853.321 96.0725 855.122 96.5593 857.143 96.8872C859.755 97.3108 862.056 97.5113 864.048 97.4887C866.033 97.5081 867.727 97.329 869.128 96.9511C870.564 96.6223 871.748 96.1226 872.678 95.4522C873.608 94.7818 874.316 94.0107 874.804 93.1388C875.402 92.1121 875.861 91.0194 876.178 89.8606C876.545 88.6666 876.855 87.2904 877.107 85.7321C877.408 83.879 877.496 82.2724 877.371 80.9121C877.294 79.5166 876.999 78.4096 876.483 77.5911C875.967 76.7726 875.246 76.2883 874.32 76.1379C873.562 76.015 872.826 76.1549 872.112 76.5578C871.44 76.9676 870.875 77.5242 870.415 78.2276C869.962 78.8889 869.674 79.5986 869.551 80.3567C869.448 80.9884 869.51 81.5388 869.737 82.0078C870.005 82.4836 870.435 82.8991 871.026 83.2543C871.623 83.5674 872.385 83.799 873.312 83.9494C874.238 84.0997 875.287 84.1618 876.459 84.1357C877.637 84.0674 878.709 83.8524 879.675 83.4905L879.067 91.237C877.927 91.8732 876.459 92.2619 874.664 92.4029C872.917 92.5087 871.307 92.442 869.833 92.2028C867.643 91.8475 865.775 91.2419 864.228 90.3858C862.73 89.4944 861.655 88.261 861.003 86.6856C860.351 85.1102 860.223 83.1011 860.619 80.6583C860.906 78.8895 861.509 77.1718 862.428 75.5054C863.353 73.7969 864.507 72.2768 865.891 70.9451C867.274 69.6134 868.837 68.6352 870.581 68.0104C872.332 67.3434 874.176 67.1671 876.113 67.4814C878.851 67.9255 881.016 69.0981 882.61 70.9991C884.252 72.8649 885.346 75.1819 885.891 77.9502C886.485 80.6833 886.536 83.566 886.044 86.5984C885.586 89.4201 884.888 91.8572 883.95 93.9094C883.061 95.9264 882.041 97.6844 880.89 99.1835C879.537 100.866 877.954 102.23 876.142 103.276C874.365 104.371 872.358 105.148 870.123 105.606C867.922 106.114 865.486 106.345 862.813 106.301C860.141 106.256 857.267 105.984 854.192 105.486ZM882.668 62.6447C881.447 62.4465 880.462 61.8546 879.714 60.8688C879.016 59.8477 878.762 58.7475 878.953 57.5683C879.151 56.3469 879.743 55.3623 880.729 54.6145C881.757 53.8736 882.882 53.6022 884.103 53.8003C885.282 53.9916 886.221 54.5978 886.92 55.6189C887.619 56.64 887.869 57.7612 887.671 58.9826C887.48 60.1618 886.891 61.1253 885.906 61.8731C884.927 62.5788 883.847 62.836 882.668 62.6447ZM871.749 60.8085C870.528 60.6104 869.543 60.0184 868.796 59.0326C868.097 58.0115 867.843 56.9114 868.034 55.7321C868.232 54.5107 868.824 53.5262 869.81 52.7784C870.838 52.0374 871.963 51.766 873.184 51.9641C874.363 52.1554 875.302 52.7616 876.001 53.7827C876.7 54.8038 876.95 55.925 876.752 57.1464C876.561 58.3256 875.972 59.2892 874.987 60.037C874.008 60.7426 872.929 60.9998 871.749 60.8085Z" fill="black"/>
<path d="M957.483 480.582L955.183 471.764C958.871 470.081 961.78 468.598 963.912 467.315C966.064 465.975 967.557 464.686 968.389 463.447C969.242 462.151 969.534 460.765 969.266 459.289C969.018 457.756 968.347 455.973 967.252 453.942L953.989 428.988L962.101 425.183L975.554 450.542C977.396 453.966 978.514 457 978.906 459.644C979.28 462.249 978.809 464.661 977.494 466.881C976.161 469.062 973.863 471.247 970.602 473.437C967.341 475.627 962.967 478.009 957.483 480.582ZM948.259 468.155L944.061 463.126C945.25 462.144 946.206 461.318 946.929 460.649C947.69 459.962 948.22 459.384 948.518 458.914C948.816 458.444 948.902 458.074 948.775 457.804C948.612 457.456 948.266 457.171 947.737 456.948C947.208 456.724 946.613 456.461 945.953 456.159C945.292 455.856 944.643 455.477 944.006 455.022C943.368 454.567 942.859 453.934 942.479 453.123C942.025 452.157 941.87 451.123 942.012 450.019C942.136 448.877 942.606 447.62 943.423 446.247C944.261 444.817 945.493 443.225 947.121 441.472L952.032 445.459C950.718 446.877 949.889 447.973 949.545 448.747C949.222 449.464 949.16 450.035 949.359 450.46C949.522 450.808 949.886 451.132 950.451 451.432C951.017 451.733 951.647 452.073 952.344 452.453C953.061 452.776 953.757 453.204 954.431 453.736C955.087 454.23 955.596 454.863 955.958 455.635C956.248 456.253 956.412 456.954 956.45 457.738C956.526 458.503 956.323 459.376 955.84 460.357C955.396 461.319 954.576 462.434 953.38 463.702C952.184 464.97 950.477 466.455 948.259 468.155ZM957.483 480.582C953.311 482.539 949.622 483.869 946.417 484.572C943.269 485.295 940.515 485.503 938.156 485.196C935.818 484.832 933.871 484.049 932.317 482.845C930.763 481.642 929.542 480.094 928.654 478.202C928.074 476.966 927.59 475.684 927.204 474.358C926.837 472.974 926.528 471.611 926.275 470.269C926.061 468.908 925.862 467.682 925.68 466.589L933.711 464.872C933.882 465.639 934.062 466.474 934.249 467.376C934.437 468.278 934.654 469.142 934.9 469.969C935.129 470.757 935.388 471.46 935.678 472.078C936.348 473.508 937.449 474.547 938.978 475.196C940.529 475.788 942.627 475.84 945.273 475.353C947.901 474.827 951.205 473.63 955.183 471.764L959.278 477.478L957.483 480.582Z" fill="black"/>
<path d="M646.567 93.4364C644.738 94.6925 642.92 95.8893 641.113 97.0267C639.33 98.1993 637.588 99.3181 635.887 100.383C634.186 101.448 632.548 102.417 630.974 103.291C629.401 104.165 627.915 104.979 626.517 105.732L622.361 97.8718C624.24 96.8398 625.984 95.8749 627.593 94.9769C629.213 94.0195 630.751 93.0929 632.206 92.197C633.661 91.3011 635.104 90.3877 636.535 89.4566C637.942 88.4904 639.384 87.5 640.861 86.4855C643.745 84.5047 646.087 82.7148 647.887 81.1159C649.688 79.517 651.011 78.0904 651.858 76.836C652.74 75.5575 653.209 74.4327 653.267 73.4614C653.36 72.466 653.152 71.599 652.645 70.8605C652.186 70.1922 651.576 69.6799 650.813 69.3236C650.086 68.9431 649.256 68.7889 648.322 68.861C647.423 68.9089 646.481 69.2711 645.496 69.9474C644.16 70.8653 643.058 72.0877 642.192 73.6145C641.325 75.1414 640.639 76.855 640.133 78.7556C639.637 80.5968 639.285 82.4953 639.075 84.4509C638.841 86.3714 638.689 88.1842 638.618 89.8894L629.93 94.5363C629.826 91.295 629.93 88.0922 630.241 84.9281C630.564 81.7046 631.16 78.6548 632.032 75.7787C632.915 72.8433 634.109 70.2114 635.615 67.8828C637.097 65.519 638.929 63.5883 641.109 62.0906C643.36 60.5447 645.626 59.6612 647.907 59.4403C650.188 59.2195 652.342 59.6039 654.367 60.5937C656.428 61.5593 658.183 63.0972 659.632 65.2074C661.372 67.7397 662.197 70.4858 662.107 73.4457C662.018 76.4056 660.742 79.5595 658.279 82.9072C655.852 86.2309 651.948 89.7406 646.567 93.4364ZM633.329 93.8324L609.285 61.1992L616.671 56.1265L634.94 80.6914L633.329 93.8324ZM636.737 57.8728C635.647 58.6216 634.461 58.8925 633.18 58.6853C631.935 58.454 630.937 57.7932 630.188 56.703C629.44 55.6127 629.169 54.427 629.376 53.146C629.618 51.8408 630.284 50.8138 631.375 50.065C632.43 49.3403 633.592 49.1113 634.862 49.3777C636.168 49.62 637.195 50.2863 637.943 51.3766C638.692 52.4669 638.933 53.647 638.667 54.917C638.436 56.1629 637.792 57.1481 636.737 57.8728Z" fill="black"/>
<path d="M394.329 550.146C392.804 547.727 391.603 545.181 390.724 542.507C389.868 539.87 389.491 537.232 389.594 534.595C389.66 531.981 390.327 529.518 391.593 527.206C392.859 524.894 394.864 522.874 397.607 521.145C400.567 519.279 403.649 518.167 406.854 517.811C410.095 517.432 413.355 517.722 416.633 518.682C419.912 519.641 423.115 521.203 426.244 523.366C429.432 525.542 432.412 528.228 435.184 531.424L429.164 537.716C426.584 534.904 424.085 532.621 421.668 530.867C419.273 529.148 416.966 527.929 414.747 527.21C412.528 526.491 410.458 526.207 408.536 526.359C406.601 526.57 404.822 527.188 403.198 528.212C401.898 529.031 400.909 529.982 400.231 531.066C399.575 532.186 399.184 533.365 399.057 534.605C398.895 535.868 398.934 537.129 399.174 538.39C399.378 539.674 399.731 540.914 400.233 542.11C400.736 543.307 401.294 544.393 401.908 545.367C403.478 547.857 405.169 550.019 406.981 551.853C408.816 553.723 410.588 555.253 412.298 556.445L406.679 563.014C405.7 562.421 404.475 561.478 403.005 560.186C401.557 558.93 400.056 557.43 398.503 555.685C396.972 553.977 395.581 552.131 394.329 550.146ZM417.529 520.462C417.238 518.881 417.22 517.253 417.476 515.578C417.754 513.94 418.375 512.364 419.337 510.849C420.357 509.348 421.77 508.029 423.575 506.891C425.848 505.457 428.191 504.813 430.602 504.957C433.013 505.101 435.296 505.882 437.45 507.298C439.603 508.714 441.42 510.595 442.899 512.941C443.627 514.096 444.226 515.206 444.696 516.272C445.189 517.373 445.621 518.538 445.992 519.767L438.041 523.116C437.743 522.244 437.399 521.377 437.006 520.515C436.614 519.653 436.224 518.915 435.837 518.301C435.041 517.038 434.167 516.051 433.214 515.34C432.284 514.665 431.317 514.291 430.313 514.218C429.367 514.159 428.443 514.413 427.541 514.982C426.819 515.437 426.27 516.086 425.893 516.929C425.54 517.808 425.338 518.767 425.287 519.808C425.273 520.826 425.377 521.87 425.598 522.941C425.856 523.989 426.228 524.94 426.715 525.793L417.529 520.462Z" fill="black"/>
<path d="M528.869 337.714L531.946 329.137C536.032 329.799 539.608 330.271 542.674 330.553C545.747 330.792 548.311 330.84 550.366 330.698C552.47 330.521 554.071 330.111 555.169 329.468C556.31 328.831 556.972 327.945 557.157 326.807C557.403 325.291 557.444 323.439 557.28 321.252C557.123 319.022 556.822 316.747 556.377 314.427L565.043 313.369C565.358 314.89 565.628 316.554 565.853 318.363C566.085 320.13 566.209 321.9 566.223 323.675C566.287 325.414 566.199 327.021 565.96 328.495C565.537 331.106 564.602 333.267 563.158 334.978C561.72 336.647 559.575 337.876 556.724 338.667C553.922 339.423 550.244 339.712 545.691 339.536C541.131 339.401 535.523 338.794 528.869 337.714ZM528.806 337.704C524.257 336.966 520.462 335.983 517.419 334.755C514.412 333.575 512.021 332.193 510.247 330.609C508.521 328.989 507.356 327.244 506.752 325.374C506.148 323.503 506.013 321.536 506.348 319.473C506.566 318.125 506.89 316.794 507.319 315.481C507.798 314.132 508.311 312.832 508.86 311.581C509.451 310.337 509.979 309.212 510.444 308.207L518.044 311.32C517.753 312.051 517.43 312.842 517.076 313.692C516.722 314.542 516.413 315.378 516.15 316.2C515.894 316.98 515.711 317.707 515.602 318.38C515.349 319.939 515.671 321.417 516.568 322.816C517.514 324.18 519.217 325.407 521.676 326.498C524.143 327.546 527.545 328.423 531.883 329.126L532.04 336.154L528.806 337.704ZM543.913 310.525C542.692 310.327 541.707 309.735 540.96 308.749C540.261 307.728 540.007 306.627 540.198 305.448C540.396 304.227 540.988 303.242 541.974 302.495C543.002 301.754 544.127 301.482 545.348 301.68C546.527 301.872 547.466 302.478 548.165 303.499C548.864 304.52 549.114 305.641 548.916 306.863C548.725 308.042 548.136 309.005 547.151 309.753C546.172 310.459 545.093 310.716 543.913 310.525ZM532.994 308.688C531.773 308.49 530.788 307.898 530.041 306.913C529.342 305.891 529.088 304.791 529.279 303.612C529.478 302.391 530.069 301.406 531.055 300.658C532.083 299.917 533.208 299.646 534.429 299.844C535.608 300.035 536.548 300.642 537.246 301.663C537.945 302.684 538.196 303.805 537.997 305.026C537.806 306.206 537.218 307.169 536.232 307.917C535.253 308.623 534.174 308.88 532.994 308.688Z" fill="black"/>
<path d="M647.26 529.885C647.085 528.92 646.964 527.771 646.896 526.439C646.829 525.107 646.878 523.581 647.043 521.86C647.201 520.097 647.556 518.103 648.107 515.879L656.343 517.185C656.117 518.57 655.935 519.838 655.796 520.991C655.651 522.101 655.577 523.133 655.576 524.088C655.568 525 655.644 525.896 655.803 526.778C656.176 528.835 656.941 530.431 658.101 531.566C659.309 532.734 660.831 533.478 662.667 533.796C664.51 534.156 666.565 534.131 668.832 533.721C671.435 533.25 673.512 532.505 675.062 531.488C676.62 530.512 677.758 529.374 678.476 528.073C679.202 526.814 679.637 525.5 679.779 524.13C679.914 522.718 679.867 521.382 679.639 520.123C679.327 518.401 678.665 516.418 677.652 514.174C676.631 511.887 675.095 509.39 673.044 506.682L680.541 501.748C681.647 503.066 682.735 504.647 683.806 506.491C684.869 508.293 685.801 510.206 686.6 512.229C687.442 514.244 688.034 516.197 688.376 518.086C688.68 519.766 688.793 521.588 688.715 523.553C688.63 525.477 688.246 527.432 687.565 529.42C686.927 531.4 685.897 533.256 684.476 534.987C683.062 536.76 681.197 538.312 678.879 539.642C676.562 540.972 673.681 541.949 670.239 542.572C667.468 543.073 664.808 543.23 662.259 543.04C659.759 542.886 657.468 542.325 655.385 541.358C653.344 540.383 651.609 538.941 650.179 537.032C648.757 535.164 647.784 532.782 647.26 529.885ZM663.459 502.238C662.158 502.474 660.965 502.234 659.882 501.52C658.841 500.798 658.202 499.786 657.967 498.485C657.731 497.183 657.971 495.991 658.685 494.907C659.442 493.817 660.471 493.153 661.772 492.918C663.032 492.69 664.186 492.958 665.235 493.722C666.326 494.478 666.989 495.508 667.225 496.809C667.46 498.111 667.196 499.286 666.432 500.335C665.71 501.376 664.719 502.01 663.459 502.238Z" fill="black"/>
</svg>
